HIERARCHY
ROOT root     
{
	OFFSET 0.0000 0.0000 0.0000
	CHANNELS 6 Xposition Yposition Zposition Zrotation Yrotation Xrotation
	JOINT pelvis   
	{
		OFFSET 0.0000 0.0000 0.0000
		CHANNELS 3 Zrotation Yrotation Xrotation
		JOINT thorax   
		{
			OFFSET 0.0000 23.0750 -5.0000
			CHANNELS 3 Zrotation Yrotation Xrotation
			JOINT rclavicle
			{
				OFFSET 0.0000 28.0009 0.0000
				CHANNELS 3 Zrotation Yrotation Xrotation
				JOINT rhumerus 
				{
					OFFSET -18.5725 5.5939 0.0000
					CHANNELS 3 Zrotation Yrotation Xrotation
					JOINT rradius  
					{
						OFFSET -24.8459 0.0000 0.0000
						CHANNELS 3 Zrotation Yrotation Xrotation
						JOINT rhand    
						{
							OFFSET -24.5477 0.0000 0.0000
							CHANNELS 3 Zrotation Yrotation Xrotation
							End Site
							{
								OFFSET -8.1826 0.0000 0.0000
							}
						}
					}
				}
			}
			JOINT lclavicle
			{
				OFFSET 0.0000 28.0009 0.0000
				CHANNELS 3 Zrotation Yrotation Xrotation
				JOINT lhumerus 
				{
					OFFSET 18.5725 5.5939 0.0000
					CHANNELS 3 Zrotation Yrotation Xrotation
					JOINT lradius  
					{
						OFFSET 24.8459 0.0000 0.0000
						CHANNELS 3 Zrotation Yrotation Xrotation
						JOINT lhand    
						{
							OFFSET 24.5477 0.0000 0.0000
							CHANNELS 3 Zrotation Yrotation Xrotation
							End Site
							{
								OFFSET 8.1826 0.0000 0.0000
							}
						}
					}
				}
			}
			JOINT head     
			{
				OFFSET 0.0000 35.2030 0.0000
				CHANNELS 3 Zrotation Yrotation Xrotation
				End Site
				{
					OFFSET 0.0000 11.7343 0.0000
				}
			}
		}
		JOINT rfemur   
		{
			OFFSET -8.2817 0.0000 0.0000
			CHANNELS 3 Zrotation Yrotation Xrotation
			JOINT rtibia   
			{
				OFFSET 0.0000 -43.3627 0.0000
				CHANNELS 3 Zrotation Yrotation Xrotation
				JOINT rfoot    
				{
					OFFSET 0.0000 -38.2947 0.0000
					CHANNELS 3 Zrotation Yrotation Xrotation
					JOINT rtoes    
					{
						OFFSET 0.0000 0.0000 16.6054
						CHANNELS 3 Zrotation Yrotation Xrotation
						End Site
						{
							OFFSET 0.0000 0.0000 5.5351
						}
					}
				}
			}
		}
		JOINT lfemur   
		{
			OFFSET 8.2817 0.0000 0.0000
			CHANNELS 3 Zrotation Yrotation Xrotation
			JOINT ltibia   
			{
				OFFSET 0.0000 -43.3627 0.0000
				CHANNELS 3 Zrotation Yrotation Xrotation
				JOINT lfoot    
				{
					OFFSET 0.0000 -38.2947 0.0000
					CHANNELS 3 Zrotation Yrotation Xrotation
					JOINT ltoes    
					{
						OFFSET 0.0000 0.0000 16.6054
						CHANNELS 3 Zrotation Yrotation Xrotation
						End Site
						{
							OFFSET 0.0000 0.0000 5.5351
						}
					}
				}
			}
		}
	}
}
MOTION
Frames: 11
Frame Time: .0333333
-24.446 69.5 2.8999 -175.093 -84.5611 -158.806 0 -0 0 -11.0755 9.13332 11.9488 10.2484 -9.12182 -4.83038e-07 47.3647 -2.74121 9.77969 -180 73.1258 -180 -0.437793 3.09341 -0.0117998 -8.996 20.8862 -1.7177e-05 -52.8704 30.2775 25.13 8.0749e-07 -71.9129 -1.11316e-06 -9.11427 3.86888 -0.308503 8.07031 -5.19549 -15.9771 -2.30102 -6.4316 -1.78893 -0 -0 45.9628 1.84799e-06 -5.06633 4.1855 -0.370702 3.57617e-06 -78.5631 -9.91295 7.53373 -81.7072 -0 -0 63.9603 -3.82436e-06 6.36311 3.65096 0.406904 7.20093e-07 -19.5516 
-25.976 69.352 2.8587 -178.062 -84.5585 -155.955 0 -0 0 -11.9027 9.06558 11.884 10.6618 -8.9113 2.91111e-06 49.2893 -3.59795 9.59 -180 74.0415 -180 -0.370594 3.26893 -0.0105999 -9.8486 20.457 2.00743e-05 -52.4342 28.0101 24.5066 1.0679e-06 -71.007 -7.61845e-07 -8.60497 4.13322 -0.311095 7.78087 -4.88711 -16.4143 -2.60457 -5.85399 -2.07068 -0 -0 47.9697 -4.7769e-06 -5.27919 5.76029 -0.531307 -1.53553e-07 -76.1676 -10.0754 7.44921 -81.3538 -0 -0 65.7914 1.53398e-06 6.6614 1.63551 0.190998 -1.4027e-06 -19.405 
-27.465 69.24 2.8331 179.17 -84.5076 -153.301 0 -0 0 -12.6456 8.98054 11.8722 11.0398 -8.68222 7.49112e-06 51.3195 -4.37965 9.34864 -180 75.1358 -180 -0.352291 3.4378 -0.0105996 -10.7905 20.0422 -5.70447e-05 -51.9257 25.5011 23.9151 1.01027e-06 -69.9638 -1.44377e-06 -8.05617 4.44303 -0.313007 7.38276 -4.50636 -16.7394 -2.8982 -5.37757 -2.61665 -0 -0 50.3083 2.01268e-07 -5.60731 6.85073 -0.671005 -2.78664e-06 -73.1717 -10.1844 7.34032 -80.868 -0 -0 67.4053 3.89424e-07 7.03144 -0.440404 -0.0542999 -6.02431e-08 -19.4152 
-28.91 69.162 2.8178 176.804 -84.4229 -151.034 0 -0 0 -13.2913 8.86491 11.9008 11.3846 -8.43912 1.0644e-06 53.4239 -5.06647 9.06911 -180 76.4237 -180 -0.407107 3.58956 -0.0128002 -11.7995 19.6422 0.000151665 -51.3841 22.8003 23.298 0 -68.8079 -0 -7.47065 4.79663 -0.313293 6.89708 -4.04634 -16.9597 -3.16514 -5.00934 -3.42951 -0 -0 52.9577 -3.40539e-06 -6.0871 7.41252 -0.788207 -6.50651e-06 -69.7122 -10.2313 7.21674 -80.2861 -0 -0 68.8192 -8.32562e-06 7.43873 -2.45628 -0.320591 -3.7884e-07 -19.5521 
-30.307 69.117 2.8079 174.95 -84.3226 -149.257 0 -0 0 -13.841 8.70561 11.9601 11.7008 -8.18796 1.11872e-05 55.5576 -5.64192 8.77035 -180 77.9093 -180 -0.562104 3.71761 -0.0182002 -12.8399 19.2676 7.142e-05 -50.8535 19.9557 22.6067 8.79456e-07 -67.5622 -1.31466e-06 -6.84884 5.1891 -0.31071 6.3504 -3.5056 -17.0886 -3.39043 -4.75537 -4.50734 -0 -0 55.8825 -8.40726e-06 -6.74128 7.44613 -0.877596 -3.35776e-06 -65.9886 -10.2143 7.08719 -79.6403 -0 -0 70.0505 -2.79562e-06 7.85186 -4.31412 -0.594396 1.19647e-06 -19.791 
-31.652 69.102 2.7989 173.634 -84.212 -147.994 0 -0 0 -14.2922 8.49 12.0418 11.9931 -7.9333 -6.12441e-06 57.6757 -6.09779 8.4739 -180 79.5971 -180 -0.843196 3.81857 -0.0280995 -13.8754 18.9053 4.18003e-05 -50.3845 17.0297 21.7776 8.88062e-07 -66.2651 -5.79623e-07 -6.18788 5.61492 -0.303698 5.77133 -2.88897 -17.1402 -3.5611 -4.61858 -5.84248 -0 -0 59.0387 7.1103e-06 -7.57347 6.98226 -0.926001 -2.95268e-06 -62.0952 -10.1395 6.96134 -78.9655 -0 -0 71.1175 -2.2728e-06 8.24464 -5.94987 -0.860511 2.4259e-06 -20.1103 
-32.945 69.115 2.7871 172.833 -84.1115 -147.218 0 -0 0 -14.6551 8.20909 12.1412 12.2654 -7.68156 4.35351e-06 59.7323 -6.43046 8.2053 -180 81.4853 -180 -1.2703 3.89398 -0.0432 -14.8597 18.5558 0.000102439 -50.027 14.0719 20.7716 5.41197e-07 -64.944 -8.50418e-07 -5.48223 6.06352 -0.290603 5.1897 -2.20746 -17.1312 -3.66685 -4.59887 -7.42207 -0 -0 62.3727 -8.6693e-07 -8.56873 6.08872 -0.915593 7.26167e-06 -58.1918 -10.0178 6.84789 -78.2884 -0 -0 72.044 -1.10989e-05 8.59892 -7.33608 -1.10621 -8.33883e-07 -20.4949 
-34.186 69.153 2.7697 172.493 -84.0318 -146.876 0 -0 0 -14.9364 7.85766 12.2561 12.5175 -7.43401 1.84709e-05 61.6878 -6.64839 7.98746 -180 83.5633 -180 -1.85252 3.94773 -0.0638007 -15.7534 18.1947 -1.57916e-05 -49.8215 11.153 19.538 5.07407e-07 -63.6603 -8.17412e-07 -4.72653 6.52384 -0.269501 4.63017 -1.47733 -17.075 -3.69942 -4.69207 -9.22873 -0 -0 65.8276 2.0561e-06 -9.69093 4.84059 -0.825607 -6.49322e-06 -54.25 -9.86093 6.75546 -77.6238 -0 -0 72.845 1.92603e-06 8.90438 -8.48085 -1.32356 2.75054e-06 -20.9239 
-35.376 69.214 2.7451 172.537 -83.9764 -146.895 0 -0 0 -15.1447 7.43495 12.3897 12.7481 -7.19279 2.76523e-05 63.5069 -6.76376 7.84191 -180 85.8327 -180 -2.58415 3.98574 -0.0899027 -16.5196 17.8075 -3.11248e-05 -49.7976 8.32143 18.0632 0 -62.4578 -0 -3.91656 6.97926 -0.238897 4.11344 -0.717701 -16.9803 -3.654 -4.89056 -11.2403 -0 -0 69.3425 -4.90689e-07 -10.8897 3.33095 -0.640396 3.4963e-06 -50.2984 -9.68235 6.6897 -76.9819 -0 -0 73.5388 -3.24838e-06 9.1595 -9.4209 -1.51187 -7.13447e-06 -21.3839 
-36.518 69.294 2.7126 172.906 -83.9411 -147.228 0 -0 0 -15.2883 6.94384 12.5467 12.952 -6.95935 2.70041e-05 65.1608 -6.79274 7.78733 -180 88.2547 -180 -3.44307 4.0134 -0.120698 -17.1287 17.3866 -7.94527e-05 -49.967 5.61436 16.3522 0 -61.3896 -0 -3.05343 7.40988 -0.197803 3.65356 0.0501784 -16.8541 -3.52753 -5.18177 -13.4315 -0 -0 72.8547 3.58767e-06 -12.104 1.65656 -0.355205 1.10375e-06 -46.3591 -9.4923 6.6549 -76.3574 -0 -0 74.1381 -4.73307e-06 9.36966 -10.2111 -1.67555 4.89879e-07 -21.8614 
-37.619 69.391 2.6723 173.527 -83.953 -147.801 0 -0 0 -15.3746 6.39096 12.7341 13.1237 -6.73268 -2.10261e-05 66.6323 -6.75689 7.83562 -4.17533e-05 89.1992 -4.18686e-05 -4.39085 4.03414 -0.154699 -17.5624 16.9253 -0.000174063 -50.3262 3.06088 14.4353 0 -60.5156 -0 -2.14726 7.79525 -0.146304 3.25794 0.805381 -16.696 -3.31952 -5.54998 -15.774 -0 -0 76.303 -1.28697e-07 -13.2672 -0.087101 0.0205003 -2.71582e-08 -42.47 -9.30001 6.65244 -75.7436 -0 -0 74.6554 -5.05489e-06 9.54542 -10.9128 -1.82343 -1.20367e-05 -22.3454 
